<svg width="200" height="200" viewBox="0 0 200 200" fill="none" xmlns="http://www.w3.org/2000/svg">
<circle cx="100" cy="100" r="100" fill="#5135C9"/>
<path d="M99.5 99.5C110.688 99.5 119.75 90.4381 119.75 79.25C119.75 68.0619 110.688 59 99.5 59C88.3119 59 79.25 68.0619 79.25 79.25C79.25 90.4381 88.3119 99.5 99.5 99.5ZM99.5 109.625C85.9831 109.625 59 116.409 59 129.875V133C59 136.866 62.134 140 66 140H133C136.866 140 140 136.866 140 133V129.875C140 116.409 113.017 109.625 99.5 109.625Z" fill="white"/>
</svg>
