<?xml version="1.0" encoding="iso-8859-1"?>
<!-- Uploaded to: SVG Repo, www.svgrepo.com, Generator: SVG Repo Mixer Tools -->
<svg height="800px" width="800px" version="1.1" id="Layer_1" xmlns="http://www.w3.org/2000/svg" xmlns:xlink="http://www.w3.org/1999/xlink" 
	 viewBox="0 0 512 512" xml:space="preserve">
<polygon style="fill:#FFFFFF;" points="72.616,365.776 9.232,256.008 72.616,146.224 199.384,146.224 262.76,256.008 
	199.384,365.776 "/>
<path d="M194.76,154.224L253.528,256L194.76,357.784H77.24L18.472,256L77.24,154.224H194.76 M204,138.224H68L0,256l68,117.784h136
	L272,256L204,138.224z"/>
<polygon style="fill:#FFFFFF;" points="312.616,227.56 249.232,117.776 312.616,8.008 439.384,8.008 502.76,117.776 439.384,227.56 
	"/>
<path style="fill:#E21B1B;" d="M434.76,16l58.76,101.776L434.76,219.56H317.24l-58.768-101.776L317.24,16H434.76 M444,0H308
	l-68,117.784l68,117.776h136l68-117.776L444,0z"/>
<polygon style="fill:#FFFFFF;" points="312.616,504.008 249.232,394.224 312.616,284.44 439.384,284.44 502.76,394.224 
	439.384,504.008 "/>
<path style="fill:#999999;" d="M434.76,292.44l58.76,101.776L434.76,496H317.24l-58.768-101.776l58.76-101.776L434.76,292.44
	 M444,276.448H308l-68,117.776L308,512h136l68-117.776L444,276.448L444,276.448z"/>
</svg>