<?xml version="1.0" encoding="iso-8859-1"?>
<!-- Uploaded to: SVG Repo, www.svgrepo.com, Generator: SVG Repo Mixer Tools -->
<svg fill="#000000" height="800px" width="800px" version="1.1" id="Capa_1" xmlns="http://www.w3.org/2000/svg" xmlns:xlink="http://www.w3.org/1999/xlink" 
	 viewBox="0 0 490 490" xml:space="preserve">
<g>
	<path d="M195.234,357.719L260.313,245l-65.078-112.719H65.078L0,245l65.078,112.719H195.234z M82.76,162.906h94.794L224.95,245
		l-47.396,82.094H82.76L35.362,245L82.76,162.906z"/>
	<path d="M294.766,0l-65.078,112.718l65.078,112.718h130.156L490,112.718L424.922,0H294.766z M407.241,194.812h-94.794
		l-47.397-82.093l47.397-82.093h94.794l47.396,82.093L407.241,194.812z"/>
	<path d="M294.766,264.563l-65.078,112.718L294.766,490h130.156L490,377.281l-65.078-112.718H294.766z M407.241,459.375h-94.794
		l-47.397-82.094l47.397-82.093h94.794l47.396,82.093L407.241,459.375z"/>
</g>
</svg>